<?xml version="1.0" standalone="no"?>
<!DOCTYPE svg PUBLIC "-//W3C//DTD SVG 20010904//EN"
 "http://www.w3.org/TR/2001/REC-SVG-20010904/DTD/svg10.dtd">
<svg version="1.0" xmlns="http://www.w3.org/2000/svg"
 width="399.000000pt" height="399.000000pt" viewBox="0 0 399.000000 399.000000"
 preserveAspectRatio="xMidYMid meet">

<g transform="translate(0.000000,399.000000) scale(0.100000,-0.100000)"
fill="#000000" stroke="none">
<path d="M1924 3471 c-38 -17 -94 -84 -81 -97 3 -3 11 5 18 18 33 64 138 109
177 76 16 -13 67 -38 78 -38 16 0 -14 25 -50 41 -52 23 -90 24 -142 0z"/>
<path d="M2136 3386 c3 -16 5 -301 5 -633 l-1 -603 588 -1 c323 0 603 -2 622
-5 32 -4 59 -25 112 -92 26 -34 4 -152 -28 -152 -8 0 -21 -11 -30 -25 l-16
-25 -604 0 c-391 0 -605 -4 -609 -10 -4 -7 194 -10 588 -10 l594 0 44 23 c49
26 89 89 89 142 0 53 -40 116 -89 142 l-44 23 -599 0 -598 0 0 598 c-1 502 -3
602 -16 627 l-14 30 6 -29z"/>
<path d="M1830 2762 l0 -602 -608 -2 -609 -3 -40 -28 c-38 -26 -70 -73 -58
-85 3 -3 5 0 5 6 0 6 9 13 19 17 10 3 21 15 24 25 3 11 24 28 49 39 41 19 72
20 636 20 l593 0 -1 602 c0 332 -3 605 -5 608 -3 2 -5 -266 -5 -597z"/>
<path d="M503 1995 c0 -22 2 -30 4 -17 2 12 2 30 0 40 -3 9 -5 -1 -4 -23z"/>
<path d="M510 1943 c0 -24 44 -73 82 -92 44 -21 50 -21 639 -19 l594 2 -605 6
c-623 5 -650 7 -650 45 0 7 -9 17 -20 20 -11 3 -20 15 -20 26 0 10 -4 19 -10
19 -5 0 -10 -3 -10 -7z"/>
<path d="M2140 1230 c0 -369 -5 -611 -11 -627 -15 -40 -1 -40 16 0 13 31 15
123 15 632 0 352 -4 595 -9 595 -6 0 -10 -246 -11 -600z"/>
<path d="M1830 1228 l0 -595 23 -43 c12 -24 34 -50 47 -58 l25 -16 -26 30
c-61 67 -58 38 -59 680 0 323 -2 590 -5 592 -3 3 -5 -262 -5 -590z"/>
<path d="M2061 529 c-13 -5 -21 -12 -18 -15 3 -3 18 1 34 10 31 17 21 20 -16
5z"/>
<path d="M1945 510 c11 -5 36 -8 55 -8 32 0 33 1 10 8 -14 4 -38 8 -55 8 -25
1 -27 -1 -10 -8z"/>
</g>
</svg>
